<?xml version="1.0" encoding="UTF-8" standalone="no"?>
<svg
   xmlns:dc="http://purl.org/dc/elements/1.1/"
   xmlns:cc="http://creativecommons.org/ns#"
   xmlns:rdf="http://www.w3.org/1999/02/22-rdf-syntax-ns#"
   xmlns:svg="http://www.w3.org/2000/svg"
   xmlns="http://www.w3.org/2000/svg"
   xmlns:sodipodi="http://sodipodi.sourceforge.net/DTD/sodipodi-0.dtd"
   xmlns:inkscape="http://www.inkscape.org/namespaces/inkscape"
   width="16cm"
   height="12cm"
   viewBox="0 -12 604.72439 453.54331"
   version="1.1"
   id="svg6"
   sodipodi:docname="anavi-lamp-top.svg"
   inkscape:version="0.92.2 (5c3e80d, 2017-08-06)"
   inkscape:export-filename="/home/leon/github/anavi/anavi-lamps/table-lamp/images/anavi-lamp-top.png"
   inkscape:export-xdpi="92"
   inkscape:export-ydpi="92">
  <metadata
     id="metadata12">
    <rdf:RDF>
      <cc:Work
         rdf:about="">
        <dc:format>image/svg+xml</dc:format>
        <dc:type
           rdf:resource="http://purl.org/dc/dcmitype/StillImage" />
        <dc:title>OpenSCAD Model</dc:title>
      </cc:Work>
    </rdf:RDF>
  </metadata>
  <defs
     id="defs10" />
  <sodipodi:namedview
     pagecolor="#ffffff"
     bordercolor="#666666"
     borderopacity="1"
     objecttolerance="10"
     gridtolerance="10"
     guidetolerance="10"
     inkscape:pageopacity="0"
     inkscape:pageshadow="2"
     inkscape:window-width="1841"
     inkscape:window-height="1018"
     id="namedview8"
     showgrid="false"
     units="cm"
     inkscape:zoom="0.86915209"
     inkscape:cx="62.907254"
     inkscape:cy="54.944369"
     inkscape:window-x="79"
     inkscape:window-y="34"
     inkscape:window-maximized="1"
     inkscape:current-layer="svg6" />
  <title
     id="title2">OpenSCAD Model</title>
  <path
     d="m 541.80408,438.48173 9.13477,-2.34473 8.77042,-3.46816 8.2671,-4.53835 7.63233,-5.53692 6.87737,-6.44897 6.01346,-7.25769 5.05567,-7.95406 4.01524,-8.524 2.91846,-8.95888 1.76535,-9.25403 0.59347,-9.39887 V 64.740758 l -0.59347,-9.40317 -1.76535,-9.252857 -2.91846,-8.956928 -4.01524,-8.52517 -5.05567,-7.955234 -6.01346,-7.257687 -6.87737,-6.4474079 -7.63233,-5.5361349 -8.2671,-4.5383545 -8.77042,-3.4681578 -9.13477,-2.3447251 -9.36011,-1.1782338 H 72.2812 l -9.359372,1.1782338 -9.13739,2.3447251 -8.771172,3.4681578 -8.266731,4.5383545 -7.63237,5.5361349 -6.877024,6.4474079 -6.013279,7.257687 -5.054992,7.955234 -4.0165148,8.52517 -2.9155095,8.956928 -1.7675346,9.252857 -0.5926176,9.40317 V 364.79707 l 0.5926176,9.40161 1.7675346,9.25364 2.9155095,8.95927 4.0165148,8.52361 5.054992,7.95406 6.013279,7.25808 6.877024,6.44858 7.63237,5.53731 8.266731,4.53835 8.771172,3.46816 9.13739,2.34473 9.359372,1.18214 H 532.44397 Z M 58.217727,383.55018 V 45.98648 H 264.80151 v 337.5637 z m 281.705173,0 V 45.98648 h 206.58378 v 337.5637 z m -38.03283,-161.29478 -0.93601,-0.11743 -0.91348,-0.23487 -0.87704,-0.35229 -0.82709,-0.45407 -0.76286,-0.55585 -0.68774,-0.64587 -0.60097,-0.72417 -0.50556,-0.79462 -0.4019,-0.84943 -0.29185,-0.89639 -0.17653,-0.92772 -0.0594,-0.93945 0.0594,-0.93946 0.17653,-0.92771 0.29185,-0.8964 0.4019,-0.84942 0.50556,-0.79463 0.60097,-0.72807 0.68774,-0.64588 0.76286,-0.55193 0.82709,-0.45407 0.87704,-0.3523 0.91348,-0.23486 0.93601,-0.11743 h 0.9439 l 0.93601,0.11743 0.91348,0.23486 0.87666,0.3523 0.82709,0.45407 0.76286,0.55193 0.68773,0.64588 0.60135,0.72807 0.50557,0.79463 0.40152,0.84942 0.29185,0.8964 0.17653,0.92771 0.0597,0.93946 -0.0597,0.93945 -0.17653,0.92772 -0.29185,0.89639 -0.40152,0.84943 -0.50557,0.79462 -0.60135,0.72417 -0.68773,0.64587 -0.76286,0.55585 -0.82709,0.45407 -0.87666,0.35229 -0.91348,0.23487 -0.93601,0.11743 z"
     id="path4"
     style="fill:none;stroke:#000000;stroke-width:3.75338697;stroke-miterlimit:4;stroke-dasharray:none"
     inkscape:connector-curvature="0" />
</svg>
