<?xml version="1.0" encoding="UTF-8" standalone="no"?>
<svg
   xmlns:dc="http://purl.org/dc/elements/1.1/"
   xmlns:cc="http://creativecommons.org/ns#"
   xmlns:rdf="http://www.w3.org/1999/02/22-rdf-syntax-ns#"
   xmlns:svg="http://www.w3.org/2000/svg"
   xmlns="http://www.w3.org/2000/svg"
   xmlns:sodipodi="http://sodipodi.sourceforge.net/DTD/sodipodi-0.dtd"
   xmlns:inkscape="http://www.inkscape.org/namespaces/inkscape"
   width="18cm"
   height="18cm"
   viewBox="-9 -9 680.31497 680.31497"
   version="1.1"
   id="svg819"
   sodipodi:docname="lampholder.svg"
   inkscape:version="0.92.2 (5c3e80d, 2017-08-06)">
  <metadata
     id="metadata825">
    <rdf:RDF>
      <cc:Work
         rdf:about="">
        <dc:format>image/svg+xml</dc:format>
        <dc:type
           rdf:resource="http://purl.org/dc/dcmitype/StillImage" />
        <dc:title>OpenSCAD Model</dc:title>
      </cc:Work>
    </rdf:RDF>
  </metadata>
  <defs
     id="defs823" />
  <sodipodi:namedview
     pagecolor="#ffffff"
     bordercolor="#666666"
     borderopacity="1"
     objecttolerance="10"
     gridtolerance="10"
     guidetolerance="10"
     inkscape:pageopacity="0"
     inkscape:pageshadow="2"
     inkscape:window-width="1841"
     inkscape:window-height="1018"
     id="namedview821"
     showgrid="false"
     units="cm"
     inkscape:zoom="0.99805176"
     inkscape:cx="185.11163"
     inkscape:cy="269.9952"
     inkscape:window-x="79"
     inkscape:window-y="34"
     inkscape:window-maximized="1"
     inkscape:current-layer="svg819" />
  <title
     id="title815">OpenSCAD Model</title>
  <path
     d="m 365.13382,650.45775 22.20557,-3.1205 21.93453,-4.65881 21.55468,-6.17655 21.07163,-7.66404 20.48581,-9.11472 6.62906,-3.52369 -2.07652,-0.0876 -3.5105,-0.59166 -3.40768,-1.02555 -3.25235,-1.4463 -3.04447,-1.84513 -2.79009,-2.20888 -2.49076,-2.54197 -2.15173,-2.83123 -1.78056,-3.08105 -1.37918,-3.27826 -0.95738,-3.42727 -0.51968,-3.51932 -0.0752,-3.55877 0.37267,-3.54122 0.81261,-3.46235 1.24121,-3.33523 1.64867,-3.15555 2.03191,-2.91889 2.3819,-2.64277 2.69487,-2.32284 2.96509,-1.96783 3.18846,-1.58216 3.36196,-1.17018 3.48214,-0.74068 3.54755,-0.3068 3.5566,0.13149 3.50973,0.59166 3.40806,1.02556 3.25197,1.4463 3.04522,1.84511 2.78935,2.20888 2.49113,2.54198 2.1521,2.83123 1.77983,3.07666 1.37954,3.27827 0.95737,3.42728 0.52008,3.51931 0.0745,3.55876 -0.3719,3.53685 -0.81337,3.46234 -1.24046,3.33524 -0.96305,1.84073 6.36711,-3.97511 18.14131,-13.17092 17.17829,-14.40377 16.1302,-15.5665 15.00463,-16.65299 13.80537,-17.65793 12.53957,-18.57787 11.21219,-19.40664 9.8296,-20.13985 8.40053,-20.77667 6.92952,-21.3118 5.42448,-21.74305 3.89414,-22.06782 2.20425,-20.95418 -1.76243,2.13001 -3.45984,3.24758 -3.84007,2.78741 -4.15908,2.2834 -4.41381,1.74431 -4.59714,1.17895 -4.70861,0.59166 h -4.74643 l -4.70975,-0.59166 -4.59675,-1.17895 -4.41307,-1.74431 -4.15945,-2.2834 -3.84044,-2.78741 -3.45984,-3.24758 -3.0252,-3.65519 -2.54367,-4.00578 -2.02058,-4.29068 -1.46686,-4.51068 -0.88973,-4.6597 -0.29744,-4.73332 0.29744,-4.73334 0.88973,-4.65969 1.46686,-4.51068 2.02058,-4.29067 2.54367,-4.0058 3.0252,-3.65518 3.45984,-3.24758 3.84044,-2.78741 4.15945,-2.2834 4.41307,-1.74431 4.59675,-1.17895 4.70975,-0.59166 h 4.74643 l 4.70861,0.59166 4.59714,1.17895 4.41381,1.74431 4.15908,2.2834 3.84007,2.78741 3.45984,3.24758 1.76243,2.13 -2.20425,-20.95462 -3.89414,-22.06869 -5.42448,-21.74261 -6.92952,-21.31224 -8.40053,-20.77667 -9.8296,-20.13985 -11.21219,-19.40665 -12.53957,-18.57786 -13.80537,-17.6575 L 562.65166,108.12164 546.52146,92.555579 529.34317,78.151376 511.20186,64.980453 492.18556,53.105503 472.38612,42.585687 451.90032,33.470967 430.82868,25.807363 409.274,19.630372 387.33948,14.971553 365.1339,11.851064 342.76404,10.286437 h -22.42293 l -22.36985,1.564627 -22.20558,3.120489 -21.93452,4.658819 -21.55467,6.176991 -21.07165,7.663604 -19.26159,8.569948 2.72584,0.460185 4.54383,1.371788 4.33596,1.928393 4.06006,2.458699 3.71988,2.94518 3.32074,3.387833 2.86987,3.777896 2.37319,4.106599 1.83953,4.373943 1.27638,4.568536 0.69317,4.692561 0.099,4.741654 -0.49588,4.71711 -1.08361,4.618067 -1.65471,4.44538 -2.19897,4.20301 -2.70885,3.896241 -3.17598,3.5237 -3.59289,3.09856 -3.95347,2.62525 -4.25165,2.10808 -4.48224,1.56025 -4.6425,0.9861 -4.73053,0.39445 -4.7415,-0.17532 -4.68028,-0.79326 -4.54384,-1.37179 -4.33633,-1.9284 -4.05967,-2.45869 -3.71988,-2.94518 -3.32114,-3.38783 -2.86947,-3.77789 -2.3732,-4.106601 -1.83954,-4.37395 -1.27637,-4.56854 -0.69318,-4.692568 -0.0997,-4.742085 0.49663,-4.717109 1.08362,-4.617183 0.9638,-2.590181 -17.05733,12.383788 -17.17828,14.404208 -16.1302,15.566061 -15.004632,16.65342 -13.805365,17.6575 -12.539577,18.57786 -11.212182,19.40664 -9.829604,20.13986 -8.400537,20.77666 -6.929518,21.31224 -5.424482,21.74262 -3.894122,22.06781 -2.344107,22.28608 -0.782755,22.39433 0.782755,22.39521 2.344107,22.28564 3.894122,22.06737 5.424482,21.74306 6.929518,21.31222 8.400537,20.77668 9.829604,20.13986 11.212182,19.40663 12.539577,18.57787 13.805365,17.65749 15.004632,16.65299 16.1302,15.5665 17.17828,14.40377 17.05733,12.38422 -0.9638,-2.59018 -1.08362,-4.61718 -0.49663,-4.71711 0.0997,-4.74209 0.69318,-4.69257 1.27637,-4.56853 1.83954,-4.37395 2.3732,-4.1066 2.86947,-3.77788 3.32114,-3.38785 3.71988,-2.94517 4.05967,-2.4587 4.33633,-1.9284 4.54384,-1.37178 4.68028,-0.78888 4.7415,-0.17532 4.73053,0.39444 4.6425,0.98612 4.48224,1.56024 4.25165,2.11246 3.95347,2.62525 3.59289,3.09856 3.17598,3.52371 2.70885,3.89623 2.19897,4.20302 1.65471,4.44537 1.08361,4.61807 0.49588,4.71711 -0.099,4.74165 -0.69317,4.69257 -1.27638,4.56853 -1.83953,4.37395 -2.37319,4.10659 -2.86987,3.7779 -3.32074,3.38783 -3.71988,2.94518 -4.06006,2.4587 -4.33596,1.92839 -4.54383,1.37179 -2.72584,0.46019 19.26159,8.56994 21.07165,7.66405 21.55467,6.17655 21.93452,4.65881 22.20558,3.1205 22.36985,1.56462 h 22.42293 z m 41.29972,-464.74201 -0.69922,-0.13147 -0.67692,-0.21914 -0.64443,-0.30679 -0.60132,-0.39444 -0.54843,-0.45581 -0.48756,-0.51716 -0.41841,-0.57413 -0.34281,-0.62235 -0.2623,-0.66179 -0.17689,-0.68808 -0.0895,-0.70561 v -0.71438 l 0.0895,-0.70562 0.17689,-0.68809 0.2623,-0.66179 0.34281,-0.62233 0.41841,-0.57415 0.48756,-0.51716 0.54843,-0.45142 0.60132,-0.39443 0.64443,-0.30681 0.67692,-0.21913 0.69922,-0.13148 0.71095,-0.0382 0.71057,0.0382 0.69885,0.13148 0.6773,0.21913 0.64405,0.30681 0.6017,0.39443 0.54842,0.45142 0.48719,0.51716 0.4188,0.57415 0.34241,0.62233 0.26231,0.66179 0.17726,0.68809 0.0892,0.70562 v 0.71 l -0.0892,0.70561 -0.17726,0.68808 -0.26231,0.66179 -0.34241,0.62235 -0.4188,0.57413 -0.48719,0.51716 -0.54842,0.45142 -0.6017,0.39445 -0.64405,0.30678 -0.6773,0.21914 -0.69885,0.13148 -0.71057,0.0377 z m 115.27779,0 -0.69884,-0.13147 -0.67768,-0.21914 -0.64443,-0.30679 -0.60095,-0.39444 -0.54842,-0.45581 -0.48718,-0.51716 -0.4188,-0.57413 -0.34318,-0.62235 -0.26192,-0.66179 -0.17689,-0.68808 -0.0896,-0.70561 v -0.71 l 0.0896,-0.70562 0.17689,-0.68809 0.26192,-0.66179 0.34318,-0.62233 0.4188,-0.57414 0.48718,-0.51717 0.54842,-0.45142 0.60095,-0.39443 0.64443,-0.3068 0.67768,-0.21913 0.69884,-0.13148 0.71056,-0.0377 0.71057,0.0377 0.6996,0.13148 0.67693,0.21913 0.64405,0.3068 0.60096,0.39443 0.54916,0.45142 0.48719,0.51717 0.41842,0.57414 0.3428,0.62233 0.26267,0.66179 0.17689,0.68809 0.0888,0.70562 v 0.71 l -0.0888,0.70561 -0.17689,0.68808 -0.26267,0.66179 -0.3428,0.62235 -0.41842,0.57413 -0.48719,0.51716 -0.54916,0.45581 -0.60096,0.39444 -0.64405,0.30679 -0.67693,0.21914 -0.6996,0.13147 -0.71057,0.0377 z m -438.43278,84.9816 -0.699603,-0.13147 -0.676927,-0.21914 -0.644043,-0.30678 -0.600958,-0.39446 -0.549175,-0.4558 -0.48719,-0.51715 -0.418402,-0.57413 -0.342809,-0.62235 -0.262683,-0.6618 -0.176886,-0.68809 -0.08882,-0.70562 v -0.70998 l 0.08882,-0.70562 0.176886,-0.68808 0.262683,-0.6618 0.342809,-0.62234 0.418402,-0.57414 0.48719,-0.51716 0.549175,-0.45141 0.600958,-0.39444 0.644043,-0.3068 0.676927,-0.21914 0.699603,-0.13147 0.710564,-0.0377 0.710566,0.0377 0.698847,0.13147 0.677683,0.21914 0.644422,0.3068 0.600956,0.39444 0.54842,0.45141 0.48719,0.51716 0.41878,0.57414 0.343188,0.62234 0.261925,0.6618 0.176886,0.68808 0.08958,0.70562 v 0.70998 l -0.08958,0.70562 -0.176886,0.68809 -0.261925,0.6618 -0.343188,0.62235 -0.41878,0.57413 -0.48719,0.51715 -0.54842,0.4558 -0.600956,0.39446 -0.644422,0.30678 -0.677683,0.21914 -0.698847,0.13147 -0.710566,0.0377 z m 86.93041,0 -0.69885,-0.13147 -0.6773,-0.21914 -0.64405,-0.30678 -0.60172,-0.39446 -0.54841,-0.4558 -0.48719,-0.51715 -0.41878,-0.57413 -0.34242,-0.62235 -0.26231,-0.6618 -0.17727,-0.68809 -0.0892,-0.70562 v -0.70998 l 0.0892,-0.70562 0.17727,-0.68808 0.26231,-0.6618 0.34242,-0.62234 0.41878,-0.57414 0.48719,-0.51716 0.54841,-0.45141 0.60172,-0.39444 0.64405,-0.3068 0.6773,-0.21914 0.69885,-0.13147 0.71056,-0.0377 0.71095,0.0377 0.69922,0.13147 0.67693,0.21914 0.64443,0.3068 0.60132,0.39444 0.54842,0.45141 0.48756,0.51716 0.41842,0.57414 0.34281,0.62234 0.26229,0.6618 0.17689,0.68808 0.0896,0.70562 v 0.70998 l -0.0896,0.70562 -0.17689,0.68809 -0.26229,0.6618 -0.34281,0.62235 -0.41842,0.57413 -0.48756,0.51715 -0.54842,0.4558 -0.60132,0.39446 -0.64443,0.30678 -0.67693,0.21914 -0.69922,0.13147 -0.71095,0.0377 z m 98.27034,0 -0.6996,-0.13147 -0.67694,-0.21914 -0.64403,-0.30678 -0.60096,-0.39446 -0.5488,-0.4558 -0.48719,-0.51715 -0.41877,-0.57413 -0.34319,-0.62235 -0.26155,-0.6618 -0.17727,-0.68809 -0.0892,-0.70562 v -0.70998 l 0.0892,-0.70562 0.17727,-0.68808 0.26155,-0.6618 0.34319,-0.62234 0.41877,-0.57414 0.48719,-0.51716 0.5488,-0.45141 0.60096,-0.39444 0.64403,-0.3068 0.67694,-0.21914 0.6996,-0.13147 0.71056,-0.0377 0.71057,0.0377 0.69961,0.13147 0.67692,0.21914 0.64442,0.3068 0.60096,0.39444 0.54842,0.45141 0.48795,0.51716 0.41802,0.57414 0.34319,0.62234 0.26193,0.6618 0.17687,0.68808 0.0895,0.70562 v 0.70998 l -0.0895,0.70562 -0.17687,0.68809 -0.26193,0.6618 -0.34319,0.62235 -0.41802,0.57413 -0.48795,0.51715 -0.54842,0.4558 -0.60096,0.39446 -0.64442,0.30678 -0.67692,0.21914 -0.69961,0.13147 -0.71057,0.0377 z m 60.7,98.17138 -4.70893,-0.59167 -4.59706,-1.17895 -4.41305,-1.74432 -4.1593,-2.2834 -3.84042,-2.7874 -3.45973,-3.24758 -3.02549,-3.65518 -2.54333,-4.0058 -2.02084,-4.29067 -1.46716,-4.51068 -0.88931,-4.6597 -0.29817,-4.73464 0.29817,-4.73333 0.88931,-4.65969 1.46716,-4.51068 2.02084,-4.29068 2.54333,-4.0058 3.02549,-3.65518 3.45973,-3.24758 3.84042,-2.7874 4.1593,-2.2834 4.41305,-1.74432 4.59706,-1.17895 4.70893,-0.59167 h 4.74641 l 4.70893,0.59167 4.59704,1.17895 4.41307,1.74432 4.1593,2.2834 3.84041,2.7874 3.45974,3.24758 3.02549,3.65518 2.54332,4.0058 2.02084,4.29068 1.46717,4.51068 0.88931,4.65969 0.29817,4.73333 -0.29817,4.73332 -0.88931,4.6597 -1.46717,4.51112 -2.02084,4.29068 -2.54332,4.00579 -3.02549,3.65518 -3.45974,3.24758 -3.84041,2.7874 -4.1593,2.28341 -4.41307,1.74431 -4.59704,1.17895 -4.70893,0.59166 z m 77.25349,62.34928 -0.69885,-0.13148 -0.67729,-0.21913 -0.64405,-0.30679 -0.60171,-0.39445 -0.54842,-0.45142 -0.4872,-0.51716 -0.41878,-0.57413 -0.34242,-0.62235 -0.26231,-0.66178 -0.17727,-0.68809 -0.0892,-0.70561 v -0.71 l 0.0892,-0.70562 0.17727,-0.68808 0.26231,-0.66179 0.34242,-0.62234 0.41878,-0.57853 0.4872,-0.51716 0.54842,-0.45142 0.60171,-0.39444 0.64405,-0.30679 0.67729,-0.21914 0.69885,-0.13148 0.71095,-0.0377 0.71057,0.0377 0.69922,0.13148 0.67693,0.21914 0.64443,0.30679 0.60131,0.39444 0.54843,0.45142 0.48719,0.51716 0.41879,0.57853 0.3428,0.62234 0.2623,0.66179 0.17689,0.68808 0.0896,0.70562 v 0.71 l -0.0896,0.70561 -0.17689,0.68809 -0.2623,0.66178 -0.3428,0.62235 -0.41879,0.57413 -0.48719,0.51716 -0.54843,0.45142 -0.60131,0.39445 -0.64443,0.30679 -0.67693,0.21913 -0.69922,0.13148 -0.71057,0.0381 z m 115.27779,0 -0.69885,-0.13148 -0.67768,-0.21913 -0.64405,-0.30679 -0.60095,-0.39445 -0.54842,-0.45142 -0.48756,-0.51716 -0.41879,-0.57413 -0.34281,-0.62235 -0.26192,-0.66178 -0.17727,-0.68809 -0.0892,-0.70561 v -0.71 l 0.0892,-0.70562 0.17727,-0.68808 0.26192,-0.66179 0.34281,-0.62234 0.41879,-0.57853 0.48756,-0.51716 0.54842,-0.45142 0.60095,-0.39444 0.64405,-0.30679 0.67768,-0.21914 0.69885,-0.13148 0.71056,-0.0377 0.71057,0.0377 0.6996,0.13148 0.67693,0.21914 0.64443,0.30679 0.60095,0.39444 0.54879,0.45142 0.48756,0.51716 0.41804,0.57853 0.34319,0.62234 0.26229,0.66179 0.17726,0.68808 0.0888,0.70562 v 0.71 l -0.0888,0.70561 -0.17726,0.68809 -0.26229,0.66178 -0.34319,0.62235 -0.41804,0.57413 -0.48756,0.51716 -0.54879,0.45142 -0.60095,0.39445 -0.64443,0.30679 -0.67693,0.21913 -0.6996,0.13148 -0.71057,0.0381 z m -438.43203,58.54291 -0.699603,-0.13148 -0.676927,-0.21914 -0.644043,-0.30679 -0.600958,-0.39443 -0.549175,-0.45143 -0.48719,-0.51716 -0.418402,-0.57414 -0.342809,-0.62234 -0.262683,-0.66179 -0.176886,-0.68808 -0.08882,-0.70562 v -0.70999 l 0.08882,-0.70562 0.176886,-0.68809 0.262683,-0.66178 0.342809,-0.62235 0.418402,-0.57413 0.48719,-0.51717 0.549175,-0.45142 0.600958,-0.39444 0.644043,-0.3068 0.676927,-0.21913 0.699603,-0.13147 0.710564,-0.0377 0.710566,0.0377 0.698847,0.13147 0.677683,0.21913 0.644422,0.3068 0.600956,0.39444 0.54842,0.45142 0.48719,0.51717 0.41878,0.57413 0.343188,0.62235 0.261925,0.66178 0.176886,0.68809 0.08958,0.70562 v 0.70999 l -0.08958,0.70562 -0.176886,0.68808 -0.261925,0.66179 -0.343188,0.62234 -0.41878,0.57414 -0.48719,0.51716 -0.54842,0.45143 -0.600956,0.39443 -0.644422,0.30679 -0.677683,0.21914 -0.698847,0.13148 -0.710566,0.0377 z m 86.93041,0 -0.69885,-0.13148 -0.6773,-0.21914 -0.64405,-0.30679 -0.60172,-0.39443 -0.54841,-0.45143 -0.48719,-0.51716 -0.41878,-0.57414 -0.34242,-0.62234 -0.26231,-0.66179 -0.17727,-0.68808 -0.0892,-0.70562 v -0.70999 l 0.0892,-0.70562 0.17727,-0.68809 0.26231,-0.66178 0.34242,-0.62235 0.41878,-0.57413 0.48719,-0.51717 0.54841,-0.45142 0.60172,-0.39444 0.64405,-0.3068 0.6773,-0.21913 0.69885,-0.13147 0.71056,-0.0377 0.71095,0.0377 0.69922,0.13147 0.67693,0.21913 0.64443,0.3068 0.60132,0.39444 0.54842,0.45142 0.48756,0.51717 0.41842,0.57413 0.34281,0.62235 0.26229,0.66178 0.17689,0.68809 0.0896,0.70562 v 0.70999 l -0.0896,0.70562 -0.17689,0.68808 -0.26229,0.66179 -0.34281,0.62234 -0.41842,0.57414 -0.48756,0.51716 -0.54842,0.45143 -0.60132,0.39443 -0.64443,0.30679 -0.67693,0.21914 -0.69922,0.13148 -0.71095,0.0377 z m 98.26997,8.8e-4 -0.6996,-0.13148 -0.67732,-0.21914 -0.64403,-0.30679 -0.60097,-0.39444 -0.54841,-0.45143 -0.48719,-0.51716 -0.41878,-0.57413 -0.3432,-0.62235 -0.26192,-0.66178 -0.17688,-0.68808 -0.0896,-0.70562 v -0.71 l 0.0896,-0.70562 0.17688,-0.68809 0.26192,-0.66178 0.3432,-0.62234 0.41878,-0.57413 0.48719,-0.51718 0.54841,-0.45141 0.60097,-0.39444 0.64403,-0.30679 0.67732,-0.21913 0.6996,-0.13149 0.71056,-0.0377 0.71018,0.0377 0.69961,0.13149 0.6773,0.21913 0.64404,0.30679 0.60097,0.39444 0.54842,0.45141 0.48794,0.51718 0.41802,0.57413 0.3432,0.62234 0.26191,0.66178 0.17689,0.68809 0.0895,0.70562 v 0.71 l -0.0895,0.70562 -0.17689,0.68808 -0.26191,0.66178 -0.3432,0.62235 -0.41802,0.57413 -0.48794,0.51716 -0.54842,0.45143 -0.60097,0.39444 -0.64404,0.30679 -0.6773,0.21914 -0.69961,0.13148 -0.71018,0.0377 z"
     id="path817"
     style="fill:none;stroke:#000000;stroke-width:0.77760732;stroke-miterlimit:4;stroke-dasharray:none"
     inkscape:connector-curvature="0" />
  <text
     xml:space="preserve"
     style="font-style:normal;font-weight:normal;font-size:26.66666603px;line-height:125%;font-family:sans-serif;letter-spacing:0px;word-spacing:0px;fill:#000000;fill-opacity:1;stroke:none;stroke-width:1px;stroke-linecap:butt;stroke-linejoin:miter;stroke-opacity:1"
     x="171.35136"
     y="593.16266"
     id="text829"><tspan
       sodipodi:role="line"
       id="tspan827"
       x="171.35136"
       y="593.16266">B1</tspan></text>
  <text
     xml:space="preserve"
     style="font-style:normal;font-weight:normal;font-size:26.66666603px;line-height:125%;font-family:sans-serif;letter-spacing:0px;word-spacing:0px;fill:#000000;fill-opacity:1;stroke:none;stroke-width:1px;stroke-linecap:butt;stroke-linejoin:miter;stroke-opacity:1"
     x="603.91663"
     y="342.37521"
     id="text829-5"><tspan
       sodipodi:role="line"
       id="tspan827-6"
       x="603.91663"
       y="342.37521">B2</tspan></text>
  <text
     xml:space="preserve"
     style="font-style:normal;font-weight:normal;font-size:26.66666603px;line-height:125%;font-family:sans-serif;letter-spacing:0px;word-spacing:0px;fill:#000000;fill-opacity:1;stroke:none;stroke-width:1px;stroke-linecap:butt;stroke-linejoin:miter;stroke-opacity:1"
     x="166.06358"
     y="89.883308"
     id="text829-1"><tspan
       sodipodi:role="line"
       id="tspan827-1"
       x="166.06358"
       y="89.883308">B3</tspan></text>
  <text
     xml:space="preserve"
     style="font-style:normal;font-weight:normal;font-size:26.66666603px;line-height:125%;font-family:sans-serif;letter-spacing:0px;word-spacing:0px;fill:#000000;fill-opacity:1;stroke:none;stroke-width:1px;stroke-linecap:butt;stroke-linejoin:miter;stroke-opacity:1"
     x="468.93112"
     y="599.17438"
     id="text859"><tspan
       sodipodi:role="line"
       id="tspan857"
       x="468.93112"
       y="599.17438">C</tspan></text>
  <text
     xml:space="preserve"
     style="font-style:normal;font-weight:normal;font-size:26.66666603px;line-height:125%;font-family:sans-serif;letter-spacing:0px;word-spacing:0px;fill:#000000;fill-opacity:1;stroke:none;stroke-width:1px;stroke-linecap:butt;stroke-linejoin:miter;stroke-opacity:1"
     x="322.64612"
     y="339.66882"
     id="text867"><tspan
       sodipodi:role="line"
       id="tspan865"
       x="322.64612"
       y="339.66882">A</tspan></text>
</svg>
